<svg xmlns="http://www.w3.org/2000/svg" width="96" height="32" viewBox="0 0 96 32" fill="none">
  <path fill-rule="evenodd" clip-rule="evenodd" d="M0 25.7802C0 26.4446 0.0508843 26.9782 0.243693 27.5513C0.280445 27.66 0.31437 27.7614 0.356777 27.8629L0.489091 28.1666C0.709102 28.6332 1.00483 29.0604 1.36436 29.431C1.43069 29.5107 1.50208 29.586 1.57809 29.6564L1.91734 29.9585C2.27135 30.2616 2.65823 30.5243 3.0708 30.7417L3.3439 30.8916C3.63792 31.0404 3.93081 31.1677 4.24009 31.2911C4.55451 31.4157 4.87537 31.5235 5.20131 31.614C5.31439 31.6461 5.43483 31.6811 5.54734 31.7047L5.89282 31.7825C6.2626 31.8698 6.6403 31.9014 7.01744 31.9515C7.28691 31.9834 7.55802 31.9996 7.82938 32L30.5412 31.9735C30.7052 31.9735 31.0456 31.9363 31.2197 31.9127C31.4459 31.8817 31.6579 31.8608 31.8694 31.8253C32.6728 31.6933 33.4649 31.4998 34.2385 31.2466C34.6021 31.1257 34.9594 30.9866 35.3088 30.8296C35.4785 30.7541 35.6385 30.6741 35.8053 30.5896L36.0422 30.4577C36.2759 30.3234 36.5024 30.1768 36.7207 30.0188C36.8615 29.9218 36.9921 29.7877 37.125 29.6863C37.2749 29.5639 37.4098 29.4243 37.527 29.2705C37.745 29.008 37.9267 28.7177 38.0675 28.4072C38.0122 28.3946 37.9589 28.3743 37.9092 28.3469C37.7334 28.2736 36.8536 27.8696 36.7699 27.8629C36.7541 28.0544 36.3741 28.4669 36.2407 28.601C35.9755 28.8659 35.6464 29.0783 35.3179 29.2603L35.1149 29.373C34.8446 29.537 34.0519 29.8418 33.7579 29.9365C32.4529 30.3664 31.0727 30.6127 29.3414 30.6127H8.23479C6.8563 30.6127 5.64516 30.3811 4.42102 29.8542L3.91497 29.6097C3.47653 29.3903 3.06832 29.1155 2.70045 28.7921C2.65013 28.7475 2.62073 28.707 2.56758 28.6664C2.44658 28.5745 2.19157 28.2522 2.09149 28.1198C2.01963 28.0219 1.95319 27.9201 1.89246 27.815C1.58544 27.3112 1.48762 26.8424 1.41016 26.2671C1.39941 26.1882 1.41016 26.1059 1.40677 26.0259C1.39952 25.9906 1.39554 25.9548 1.39489 25.9188L1.43504 25.3057C1.50854 24.514 1.86758 23.7753 2.54778 23.3657C2.72646 23.258 3.0691 23.0895 3.27774 23.0721C3.30093 23.1718 3.30658 23.3076 3.32411 23.4203C3.49115 24.5358 3.94349 25.5898 4.63758 26.4806C4.7526 26.6279 4.87646 26.7681 5.0085 26.9004C5.10336 27.0055 5.20497 27.1043 5.31269 27.1963C5.49928 27.3388 5.65478 27.4915 5.86681 27.6375C6.82011 28.2939 7.93568 28.6574 9.10893 28.7887L9.46967 28.8236C9.53356 28.8332 9.59067 28.8236 9.65343 28.8315C9.71755 28.8397 9.78216 28.8437 9.84681 28.8433L10.3936 28.8574C10.4637 28.8574 10.4688 28.8461 10.5293 28.8433C10.6237 28.8383 10.7362 28.8512 10.8278 28.8433C11.0071 28.8236 11.2016 28.8219 11.3876 28.8022C12.7033 28.6664 14.1259 28.3976 15.3404 27.9237C15.6361 27.811 15.9251 27.6983 16.197 27.5659C16.2643 27.5327 16.335 27.5045 16.4017 27.4707L16.9971 27.1658C17.1283 27.0875 17.2487 27.0261 17.3793 26.9478C18.4344 26.315 19.4109 25.5723 20.3936 24.8341C22.1187 23.5381 23.5407 23.0394 25.7023 23.5781C25.9343 23.638 26.1629 23.7102 26.3871 23.7945C26.8818 23.9731 27.3986 24.2926 27.748 24.6837C27.8908 24.8476 28.0112 25.0297 28.1059 25.2252C28.1555 25.3302 28.1973 25.4386 28.2309 25.5497C28.4005 26.0467 28.3824 26.7607 28.1823 27.2334C27.9606 27.758 27.601 28.0471 27.1136 28.2922C26.6505 28.525 25.8985 28.5982 25.4174 28.3554C25.2949 28.2914 25.1796 28.2145 25.0736 28.126C25.0385 28.0928 25.0062 28.0568 24.9769 28.0184C24.8527 27.8724 24.7568 27.7046 24.6942 27.5236C24.5869 27.1788 24.561 26.814 24.6184 26.4575C24.6433 26.3206 24.6778 26.2158 24.7061 26.0963C24.4465 26.036 23.5096 25.6861 23.3677 25.6743L23.2507 26.156C23.0443 27.1636 23.3163 28.3379 24.0264 29.0462C24.2673 29.2973 24.5535 29.5009 24.87 29.6463C25.7708 30.0486 26.7416 29.9478 27.627 29.59L27.9199 29.4463C28.1528 29.3242 28.3718 29.1774 28.573 29.0084L28.7992 28.7988C28.9081 28.6886 29.0084 28.5703 29.0994 28.4449C29.5151 27.8704 29.7408 27.181 29.7451 26.4727C29.7451 25.9718 29.7066 25.5999 29.5755 25.1474C29.3086 24.2458 28.7381 23.5471 27.9669 23.0349C27.0463 22.4229 25.7928 22.0657 24.6801 21.9823L24.0801 21.9541L23.5085 21.9834C22.8099 22.0531 22.1278 22.2378 21.49 22.53C21.4521 22.5475 21.4238 22.5649 21.3893 22.5801L20.989 22.7802C20.7956 22.8878 20.6005 22.9983 20.4174 23.1217L19.7021 23.6068C19.1174 24.0283 18.5532 24.4673 17.9696 24.8882L17.2487 25.3813C17.0661 25.4985 16.8829 25.6213 16.6918 25.7244L16.1043 26.0512C15.2674 26.4784 14.3838 26.808 13.4712 27.0334C11.8252 27.4436 9.63421 27.6634 8.0516 27.1461C7.74966 27.0475 7.63827 26.9945 7.37309 26.8846C7.29999 26.8557 7.22896 26.8218 7.16049 26.7832C6.89438 26.6323 6.6393 26.4628 6.39717 26.2761C6.0183 25.9747 5.69692 25.6078 5.4484 25.193L5.27085 24.8803C5.2488 24.8397 5.23693 24.8285 5.21431 24.7856C5.19169 24.7428 5.18378 24.7096 5.16455 24.6729C4.95365 24.2475 4.68621 23.4186 4.68621 22.9447C4.93952 22.9447 5.08596 22.898 5.26237 22.7565C5.51455 22.5542 5.53547 22.2646 5.41447 21.9879C5.36907 21.8975 5.30624 21.8169 5.22958 21.7507C4.99267 21.5112 4.55899 21.5428 4.20842 21.5428C3.09794 21.5428 1.92922 21.9158 1.14611 22.6962C0.685687 23.1619 0.356996 23.7406 0.19337 24.3737C0.0669423 24.8304 0.00266283 25.302 0.00225699 25.7757L0 25.7802ZM54.6677 5.4805H53.7065V30.4752H54.6677V5.4805ZM79.8386 10.4601C79.8386 10.6573 79.9517 10.9368 80.0489 11.0348C80.1693 11.1543 80.4594 11.245 80.6375 11.245C80.8345 11.2441 81.0238 11.1688 81.1673 11.0342C81.3743 10.8263 81.4014 10.6657 81.4014 10.3907C81.4014 10.2251 81.2883 9.96362 81.2075 9.88022C81.1079 9.78105 80.8512 9.68694 80.6839 9.68694C80.421 9.68694 80.2349 9.74329 80.0619 9.92023C79.9644 10.0231 79.896 10.1499 79.8635 10.2876C79.8516 10.3445 79.8436 10.4021 79.8397 10.4601H79.8386ZM81.8079 21.8617V24.7918C81.8079 24.8189 81.8159 24.8268 81.843 24.8268H82.5028C82.5294 24.8268 82.5379 24.8189 82.5379 24.7918V21.8617C82.5379 21.8352 82.5294 21.8273 82.5028 21.8273H81.843C81.813 21.8273 81.8079 21.8352 81.8079 21.8617ZM72.8449 21.8617V22.3688C72.8449 22.3953 72.8534 22.4032 72.8799 22.4032H73.7224V24.7924C73.7224 24.8189 73.7303 24.8268 73.7569 24.8268H74.4173C74.4439 24.8268 74.4518 24.8189 74.4518 24.7924V22.4032H75.3203C75.3469 22.4032 75.3553 22.3953 75.3553 22.3688V21.8617C75.3553 21.8352 75.3469 21.8273 75.3203 21.8273H72.8771C72.8505 21.8273 72.842 21.8352 72.842 21.8617H72.8449ZM80.0133 22.6928L80.024 22.7171C80.0285 22.7289 80.0319 22.7419 80.0353 22.752L80.2898 23.5601C80.3057 23.6046 80.3178 23.6504 80.326 23.697H79.7006L80.0133 22.6928ZM79.3529 24.8279L79.527 24.2644H80.5075C80.5168 24.3135 80.5308 24.3617 80.5493 24.4081L80.6816 24.8302H81.4574C81.4432 24.7642 81.4223 24.6998 81.3952 24.638C81.3726 24.5715 81.3488 24.5202 81.3256 24.4537C81.3024 24.3873 81.2827 24.3343 81.2572 24.2678C81.0542 23.7516 80.8241 23.0986 80.6251 22.5666C80.577 22.4376 80.5312 22.3114 80.486 22.1863L80.3825 21.9085C80.3695 21.8724 80.3661 21.8296 80.3226 21.8296H79.6972C79.6542 21.8296 79.6288 21.9569 79.5994 22.0324L78.6099 24.7163C78.5534 24.8595 78.563 24.829 78.736 24.829L79.3529 24.8279ZM75.7285 21.8617V24.7918C75.7285 24.8189 75.7365 24.8268 75.763 24.8268H76.4579V23.5815H77.5107V24.793C77.5107 24.82 77.5187 24.8279 77.5452 24.8279H78.2056C78.2322 24.8279 78.2401 24.82 78.2401 24.793V21.8628C78.2401 21.8363 78.2322 21.8285 78.2056 21.8285H77.5452C77.5187 21.8285 77.5107 21.8363 77.5107 21.8628V23.0174H76.4568V21.8285H75.7579C75.7314 21.8285 75.7234 21.8363 75.7234 21.8634L75.7285 21.8617ZM60.858 23.8125H71.593V23.0045H60.8568L60.858 23.8125ZM84.2845 23.8125H95.1462V23.0045H84.2845V23.8125ZM81.1034 13.5006C81.0548 13.1214 80.9185 12.3089 80.5001 12.2503H81.1577L81.1549 14.0737L81.1034 13.5006ZM79.9302 19.8523H81.2159V12.2029H79.9302V19.8523ZM78.1892 11.8203C78.1766 11.3647 78.1173 10.9115 78.0123 10.4679C77.9405 10.1817 77.8364 9.88755 77.6283 9.69596C77.5922 9.66272 77.4412 9.56636 77.3694 9.58326L78.1892 9.58665V11.8169V11.8203ZM77.0256 19.854H78.2995V9.50212H77.0256V19.854ZM83.5602 18.0424C83.6076 17.9872 83.6606 17.9372 83.7185 17.893L83.792 17.9685C83.9496 18.1491 84.137 18.3016 84.3461 18.4193C84.7668 18.656 84.8103 18.6098 85.1982 18.7157C84.436 18.7157 83.8706 18.5106 83.5585 18.0396L83.5602 18.0424ZM85.3328 12.4796L85.3418 12.4757L85.3899 12.4599C85.9553 12.3258 86.6683 12.4244 87.1862 12.6481C87.429 12.7547 87.6571 12.892 87.8647 13.0566C87.9982 13.1625 88.3284 13.4606 88.3996 13.5993C88.3216 13.6556 88.2413 13.7046 88.1587 13.7559L88.0411 13.6077C87.9524 13.495 87.8642 13.4234 87.7952 13.3451C87.6499 13.18 87.2597 12.9208 87.0443 12.8126C86.4455 12.5123 85.9943 12.4644 85.3328 12.4796ZM82.8964 14.3724C82.8964 14.6693 82.8964 14.7972 82.9908 15.0863C83.3261 16.0933 84.4869 16.4607 85.4114 16.6894C85.966 16.8269 87.1743 17.0534 87.2592 17.6299C87.3677 18.3675 86.3884 18.6442 85.8145 18.6442C85.5013 18.6442 85.2954 18.6442 84.9879 18.5675C84.6482 18.4909 84.3306 18.3379 84.0594 18.1201C83.9905 18.0638 83.9401 18.0074 83.8757 17.9567C83.8161 17.9004 83.7594 17.8409 83.7061 17.7787C83.6241 17.8425 83.5456 17.9105 83.4708 17.9826L83.2328 18.1956C83.187 18.2323 83.1582 18.2649 83.1152 18.2976C83.0722 18.3303 83.0439 18.3669 82.9931 18.4064L82.7567 18.6211L82.9331 18.8262L83.2905 19.1389C83.493 19.2998 83.7141 19.4358 83.9492 19.5441C84.7329 19.9385 85.94 20.0174 86.7938 19.7695C87.4209 19.588 87.9015 19.2984 88.2526 18.776C88.4325 18.4978 88.534 18.1765 88.5466 17.8457C88.5466 17.3904 88.5008 17.1098 88.2453 16.7266C87.7522 15.9862 86.5807 15.6481 85.784 15.4751C85.4592 15.4053 85.1401 15.3111 84.8295 15.1934C84.5644 15.0886 84.2347 14.9184 84.1855 14.6C84.1563 14.44 84.1758 14.275 84.2414 14.1261C84.307 13.9772 84.4157 13.8512 84.5536 13.7644C85.0851 13.4032 86.0067 13.4353 86.6078 13.6748C86.9268 13.8076 87.2181 13.9987 87.4667 14.2382L87.6431 14.4203L88.0519 14.0546C88.0739 14.0382 88.0951 14.0207 88.1152 14.0021L88.593 13.5778C88.502 13.4426 88.1587 13.1411 88.0457 13.0493C87.8443 12.8851 87.6253 12.7437 87.3926 12.6278C86.2838 12.0756 84.7481 12.0288 83.7326 12.7844L83.4884 12.9918C83.4595 13.0228 83.4527 13.0403 83.4194 13.073C83.386 13.1056 83.3787 13.1203 83.3498 13.1535C83.0689 13.5 82.91 13.9288 82.8975 14.374L82.8964 14.3724ZM92.8523 12.3759C92.9309 12.3376 93.1243 12.3382 93.226 12.3382C93.7314 12.3316 94.2277 12.4713 94.6549 12.7405C94.835 12.8518 94.9995 12.9866 95.144 13.1411C95.2604 13.2713 95.4617 13.4905 95.52 13.6483C95.4809 13.6173 95.2536 13.3485 95.0162 13.1676C94.3428 12.6543 93.7689 12.434 92.8495 12.3759H92.8523ZM90.8219 11.5177C90.8366 11.396 90.797 11.0669 90.7817 10.9339C90.7472 10.6359 90.6686 10.18 90.5205 9.92474C90.4125 9.73541 90.3565 9.69427 90.1813 9.62721H90.8281L90.8202 11.5188L90.8219 11.5177ZM89.6345 9.53706V19.8196C89.6345 19.8461 89.6424 19.854 89.669 19.854H90.9197V15.1917C90.9197 14.3842 91.419 13.8432 92.0788 13.6235C93.0191 13.3107 94.1432 13.5023 94.6142 14.4529C94.6732 14.58 94.7085 14.7167 94.7182 14.8564C94.7278 15.1855 94.7182 15.5326 94.7182 15.8611V19.6365C94.7182 19.7492 94.6967 19.8557 94.7527 19.8557H96V14.8913C96 14.3408 95.7976 13.7407 95.5036 13.3434C95.2098 12.9379 94.8073 12.6231 94.3422 12.4351C93.5348 12.1049 92.6199 12.1353 91.8176 12.4548C91.6474 12.5228 91.485 12.6085 91.333 12.7106C91.2038 12.7953 91.0812 12.8895 90.9661 12.9924C90.9505 13.0077 90.9339 13.0218 90.9163 13.0346V9.50212H89.6673C89.6407 9.50212 89.6328 9.51001 89.6328 9.53706H89.6345ZM69.8866 16.6714C69.9166 17.3059 70.279 17.9037 70.759 18.2717C70.8533 18.3429 70.9545 18.4046 71.061 18.456C71.2976 18.5759 71.5553 18.649 71.8198 18.6712L71.6145 18.6769C71.3172 18.6705 71.0234 18.6118 70.7466 18.5033C70.3754 18.3565 70.0554 18.1045 69.8264 17.7784C69.5974 17.4523 69.4693 17.0665 69.458 16.6686H69.8866V16.6714ZM72.0782 13.4837C72.522 13.4837 72.7386 13.4911 73.1525 13.6618C73.3763 13.7585 73.5809 13.8946 73.7563 14.0636C73.9285 14.2338 74.0705 14.4317 74.1764 14.649C74.2652 14.8271 74.4151 15.2165 74.4196 15.4109H70.0189C70.0189 15.3032 70.0839 15.0993 70.1116 15.0068C70.2518 14.54 70.5433 14.1325 70.9405 13.8483C71.0404 13.7781 71.1473 13.7182 71.2594 13.6697C71.5269 13.5609 71.7791 13.4837 72.0804 13.4837H72.0782ZM75.3056 14.8829C75.1727 14.5251 74.9403 14.0157 74.7356 13.7198C74.3896 13.2195 74.0668 12.9355 73.5443 12.5962C73.7298 12.6368 74.151 12.9264 74.2765 13.0234C74.3331 13.0684 74.3783 13.1124 74.4326 13.1563C75.0088 13.628 75.426 14.5617 75.4633 15.3241L75.3056 14.8829ZM68.6755 15.9862C68.6755 17.0501 68.9435 17.8587 69.4444 18.5551C69.8049 19.0441 70.2961 19.4221 70.8619 19.6461C71.4551 19.8723 72.0958 19.9461 72.725 19.8607C72.9249 19.8329 73.1226 19.7907 73.3164 19.7345C73.665 19.6332 73.9967 19.4813 74.3008 19.2837C74.4434 19.1898 74.5787 19.0855 74.7057 18.9716L75.0229 18.6583C75.0392 18.6436 75.0538 18.6271 75.0664 18.6092C75.0246 18.5816 74.9799 18.5461 74.9386 18.5168C74.6429 18.3095 74.3003 18.0514 74.0125 17.8592C73.9381 17.9424 73.8555 18.0179 73.766 18.0846L73.6732 18.1539C73.5443 18.2457 73.4071 18.3251 73.2633 18.3912C72.6498 18.6532 71.9798 18.7095 71.3375 18.4571C71.1046 18.3639 70.8915 18.2278 70.7093 18.0559C70.4352 17.7954 70.2319 17.4699 70.1184 17.1098C70.0704 16.9741 70.0365 16.8338 70.0172 16.6911H75.6799C75.7314 16.6911 75.7229 16.6184 75.7285 16.5666C75.7325 16.5249 75.741 16.4392 75.7461 16.3975L75.7608 16.0544C75.7593 15.6472 75.7071 15.2417 75.6053 14.8474C75.5159 14.5063 75.3813 14.1787 75.2049 13.8731C75.1812 13.8286 75.1484 13.7818 75.1218 13.7367L74.7221 13.224L74.5434 13.0549C74.5191 13.0358 74.5078 13.0194 74.484 12.9986C74.3594 12.8928 74.2271 12.7964 74.0882 12.7101L73.9435 12.6233C73.5635 12.394 72.8737 12.199 72.3083 12.199C71.5077 12.199 70.9632 12.3337 70.3593 12.6915C69.8199 13.0104 69.4111 13.5068 69.1221 14.0551C68.8485 14.5747 68.6698 15.3224 68.6698 15.9839L68.6755 15.9862ZM63.0099 14.4648C62.9817 14.369 62.976 14.1695 62.946 14.0438C62.8556 13.6657 62.7103 13.357 62.2975 13.2392H63.0099V14.4625V14.4648ZM67.0171 13.1248C66.9747 13.0684 66.9413 13.0076 66.8978 12.9445C66.3459 12.137 65.7839 11.4912 64.8724 11.1199C64.7326 11.0584 64.588 11.0084 64.4399 10.9706C64.67 10.9616 65.1682 11.1498 65.3576 11.236C66.0491 11.5504 66.8616 12.3754 67.0171 13.1248ZM59.9883 13.6432C59.9883 13.7086 59.9793 13.7351 60.0234 13.7351H61.239C61.2956 13.7351 61.2741 13.6156 61.2735 13.5621C61.2826 13.3718 61.3114 13.1829 61.3595 12.9986C61.5178 12.3601 62.0154 11.8282 62.7793 11.8282C63.6868 11.8282 64.4755 11.9713 65.1812 12.4582C65.7788 12.8701 66.1554 13.5435 66.295 14.245C66.4093 14.8721 66.4143 15.5141 66.3097 16.1428C66.2714 16.3571 66.2146 16.5677 66.1401 16.7723C66.122 16.8241 66.1062 16.8619 66.0836 16.9131C65.988 17.1385 65.7896 17.4766 65.6222 17.6417L65.5238 17.7567C65.1031 18.0891 64.9132 18.2368 64.3771 18.4024C64.216 18.4508 64.0519 18.4884 63.8858 18.5151C63.638 18.5542 63.3875 18.5746 63.1366 18.576V13.0915H61.8627V19.8534C62.8019 19.8534 63.8869 19.903 64.7735 19.6156C65.452 19.3959 65.8732 19.1801 66.4047 18.6904C66.4315 18.6712 66.4566 18.6499 66.4799 18.6267C66.692 18.3771 66.7146 18.3883 66.9232 18.0762C67.2512 17.5859 67.4451 17.0557 67.5667 16.4556C67.6798 15.8983 67.6758 15.5737 67.6758 15.0181C67.6758 13.2274 66.7463 11.6248 65.0607 10.9542C64.8446 10.8671 64.6226 10.7951 64.3964 10.739C63.5539 10.5299 62.3908 10.4234 61.6083 10.8173C61.4453 10.8945 61.2912 10.989 61.1486 11.099C60.7221 11.4324 60.3999 11.88 60.2196 12.3894C60.0697 12.7917 59.9908 13.2169 59.9866 13.646L59.9883 13.6432ZM8.91782 12.4942L11.4741 12.1562C12.2035 12.0519 12.973 11.964 13.7018 11.8586C13.8093 11.8429 13.9246 11.822 14.0258 11.8136C14.0258 11.693 13.9981 11.6163 13.9981 11.4867C13.9981 11.1853 13.9981 10.9531 14.1627 10.6978C14.2349 10.5845 14.337 10.493 14.4578 10.4336C14.4791 10.4225 14.501 10.4125 14.5234 10.4037L14.5856 10.3705C14.4505 10.3817 14.3029 10.4105 14.1632 10.4268L10.7243 10.8776C10.6678 10.8849 10.5756 10.8928 10.5066 10.9052C10.4377 10.9176 10.445 10.9261 10.3732 11.0179L9.5771 11.9257C9.41858 12.0945 9.25077 12.2544 9.07444 12.4047C9.02916 12.4393 8.97931 12.4675 8.9263 12.4886L8.91782 12.4937V12.4942ZM19.5839 0.952297C19.5839 2.30467 19.4624 3.20625 19.1632 4.3986C19.1146 4.593 19.066 4.77614 19.0055 4.96209C18.9133 5.24383 18.8359 5.50078 18.7296 5.77577C18.5718 6.18542 18.4706 6.40575 18.3044 6.79455C18.2066 7.02277 18.0488 7.30508 17.9408 7.52146C17.9188 7.56541 17.9041 7.59753 17.8797 7.63754C17.7763 7.80658 17.6598 8.04268 17.5467 8.21737C17.2787 8.62984 17.1249 8.88848 16.8156 9.29926C16.7681 9.36181 16.508 9.67737 16.4973 9.71681C16.5629 9.73428 17.0961 10.2054 17.2216 10.2888C17.5874 9.74442 17.8752 9.30321 18.2128 8.73127C18.2953 8.59152 18.3615 8.46248 18.4446 8.32274C18.6787 7.93224 18.8907 7.45665 19.0926 7.04981C19.1265 6.98051 19.1559 6.90331 19.1881 6.83174C19.4251 6.30099 19.6263 5.75507 19.7903 5.19763C20.1194 4.07346 20.3274 2.60557 19.9922 1.46845C19.9322 1.2656 19.7179 0.635615 19.5704 0.527425C19.5704 0.684639 19.5839 0.791139 19.5839 0.94948V0.952297ZM17.0961 11.0951C17.2352 11.254 17.2617 11.245 17.424 11.245C17.6202 11.245 18.0318 11.0365 18.1947 10.9379C18.4774 10.7688 18.7188 10.6161 18.9863 10.4184C19.0332 10.3834 19.062 10.3569 19.1067 10.3214C19.131 10.3017 19.1401 10.2893 19.1632 10.2679C19.1864 10.2465 19.1966 10.2431 19.2243 10.22C19.3035 10.1541 19.507 9.91967 19.5868 9.83233C20.0956 9.26377 21.0766 7.66346 21.4362 7.00699L22.7474 4.61216L23.3802 3.28289L20.6763 3.86835C20.6045 3.89427 20.6136 3.9371 20.6 4.02331C20.3523 5.57629 19.9175 7.01262 19.2328 8.3774C19.0402 8.75993 18.8226 9.12944 18.5814 9.48353C18.3994 9.75682 18.2467 9.92305 18.0595 10.1597L17.6852 10.562C17.6431 10.5971 17.6033 10.6347 17.5659 10.6747C17.5308 10.7125 17.493 10.7477 17.4528 10.7801L17.0978 11.0934L17.0961 11.0951ZM38.374 24.6645C38.4189 24.6329 38.4589 24.595 38.4927 24.5518C38.6882 24.3255 38.898 24.1118 39.1209 23.9122C39.1427 23.8931 39.1635 23.8728 39.1831 23.8514C39.3143 23.7201 39.4438 23.626 39.5585 23.5178L40.3654 22.9064C41.092 22.4235 42.19 21.9017 43.1128 21.9017L43.5499 21.9152L43.3695 21.1427C43.309 20.888 43.2564 20.6215 43.1948 20.3639C43.1699 20.2586 42.726 18.2458 42.7062 18.2278C42.6768 18.2018 42.5496 18.248 42.5146 18.2565C42.272 18.316 42.0363 18.4004 41.8112 18.5084C41.5534 18.636 41.3092 18.7893 41.0824 18.9659C41.0343 19.0054 40.9964 19.042 40.9495 19.0786C40.8181 19.1875 40.6942 19.305 40.5786 19.4302C40.5339 19.4866 40.5045 19.5074 40.4604 19.5576L40.245 19.819C40.1047 20 39.9739 20.1881 39.8531 20.3825L39.3527 21.3129C38.9185 22.2144 38.642 23.2614 38.4435 24.243C38.4132 24.382 38.39 24.5225 38.374 24.6639V24.6645ZM35.6837 22.7864C35.6837 23.5285 35.7312 24.0633 35.9817 24.7349C36.1208 25.1092 36.3177 25.4596 36.5652 25.7734C36.615 25.8388 36.6664 25.8861 36.7156 25.9498C36.7649 26.0097 36.8182 26.0661 36.8751 26.1189L37.0447 26.2761C37.1176 26.3375 37.3353 26.5387 37.4173 26.5578C37.4173 26.4902 37.3964 26.3809 37.3862 26.3031L37.3353 25.1423C37.3401 24.7606 37.3683 24.3796 37.4196 24.0013C37.4326 23.8942 37.4552 23.7629 37.4761 23.6508C37.6101 22.9904 37.6938 22.6928 37.9578 22.073C37.998 21.9795 38.0477 21.8927 38.0941 21.8003C38.2311 21.5332 38.392 21.279 38.5747 21.0407C38.6369 20.9629 38.6929 20.8925 38.7579 20.8153C38.7947 20.7719 38.8173 20.7589 38.8557 20.7082C38.9535 20.597 39.0612 20.4947 39.1775 20.4028C39.1447 20.3408 39.104 20.2721 39.0689 20.2118L38.4079 19.033C38.3723 18.9631 38.3355 18.8994 38.2948 18.8318L37.9658 18.248C37.9279 18.177 37.8951 18.1122 37.8527 18.0457L37.5179 17.4541C37.4897 17.4028 37.4354 17.285 37.3992 17.2591C37.3885 17.3059 37.2765 17.4901 37.2449 17.5538C37.2132 17.6175 37.1934 17.6417 37.1668 17.6941L37.017 17.9939C36.36 19.2995 35.6786 21.3078 35.6786 22.7836L35.6837 22.7864ZM20.5536 12.9862C20.6277 12.9512 21.5216 12.7692 21.6155 12.7512C21.9717 12.683 22.3714 12.6171 22.7429 12.5686C22.9612 12.5399 23.4169 12.4785 23.6267 12.4695C23.7239 12.4649 23.8353 12.4464 23.9269 12.4418C24.3419 12.4221 24.7445 12.3855 25.1833 12.3855H25.9076C27.0464 12.3855 28.426 12.6255 29.5291 12.8859C29.9153 12.9772 30.3965 13.1203 30.7968 13.1203C30.9285 13.1203 30.9421 13.0076 30.712 12.8504C30.5203 12.7202 29.8638 12.3675 29.6088 12.2215C29.567 12.1973 29.5285 12.1708 29.4805 12.1449C29.2979 12.0457 28.9501 11.8164 28.7697 11.6941L28.5351 11.5335C28.2552 11.3347 27.9856 11.122 27.7271 10.8962L26.9825 10.1817L26.6268 9.77429C26.0263 9.03105 25.747 8.5656 25.3382 7.7508C25.2483 7.57104 25.1805 7.40256 25.0968 7.21548L24.9356 6.8047C24.926 6.77934 24.9204 6.76638 24.9091 6.73595C24.891 6.68411 24.9091 6.69538 24.8695 6.66664C24.8619 6.76278 24.8485 6.85837 24.8293 6.95289C24.8033 7.14674 24.7049 7.60598 24.6557 7.7739L24.5427 8.152C24.304 8.90741 23.9556 9.62389 23.5085 10.2786C23.3322 10.539 23.1399 10.7883 22.9329 11.0252L22.6174 11.378C22.5292 11.4907 22.2216 11.7516 22.1 11.8693C22.065 11.9032 22.0469 11.9099 22.0113 11.9443C21.9756 11.9787 21.9576 11.9877 21.9225 12.0192C21.8631 12.0716 21.8049 12.1184 21.7433 12.1669L21.2632 12.519C21.054 12.6672 20.8262 12.8087 20.6022 12.9355C20.5457 12.9665 20.5683 12.9394 20.553 12.9817L20.5536 12.9862ZM41.2034 28.6794C40.4188 28.6789 39.6421 28.523 38.9185 28.2207C38.8765 28.1973 38.8321 28.1785 38.7862 28.1643C38.8164 28.2756 38.8523 28.3852 38.8936 28.4928L39.0186 28.8039C39.1678 29.149 39.3597 29.4742 39.5896 29.772C39.6253 29.8165 39.6598 29.8531 39.6954 29.8987C40.0578 30.3608 40.7244 30.766 41.3351 30.9192C41.5873 30.9834 41.8453 31.0226 42.1052 31.0364C42.1758 31.0336 42.2465 31.0362 42.3167 31.0443L42.9386 31.0094C43.1944 30.9841 43.4482 30.9412 43.698 30.8809C44.0447 30.8006 44.3866 30.7007 44.722 30.5817C45.4124 30.3563 45.9325 30.0639 46.5573 29.7567C46.9446 29.5663 47.5723 29.1561 47.937 28.9115C47.9109 28.8721 47.6887 28.707 47.6361 28.6664L45.4921 26.9759C45.4355 26.9889 45.3632 27.0655 45.2795 27.1315C44.7542 27.5451 44.3963 27.7851 43.7986 28.0781C43.0993 28.4086 42.3445 28.6071 41.5726 28.6636C41.4425 28.6703 41.3289 28.6771 41.2039 28.6771L41.2034 28.6794ZM6.03417 12.9017C5.87363 12.9009 5.71547 12.8629 5.57219 12.7908C5.42892 12.7186 5.30445 12.6142 5.20866 12.4858C5.08822 12.3314 5.07804 12.2942 5.07804 12.0852C5.07804 11.84 5.24032 11.5696 5.41729 11.4298C5.71471 11.1937 6.04774 11.2698 6.04774 11.0512C6.04774 10.8714 5.57788 10.544 5.01755 10.9092C4.73556 11.0912 4.51202 11.3502 4.37353 11.6552C4.16941 12.1432 4.22426 12.6486 4.43629 13.1203C4.63023 13.5508 4.97514 13.9419 5.4156 14.1312C6.08167 14.418 6.94224 14.3002 7.6394 14.1875L9.62968 13.8573C9.97233 13.8072 10.3031 13.7559 10.6474 13.7165C10.9918 13.677 11.3305 13.628 11.685 13.5936L13.8178 13.4049C13.8613 13.4015 13.9088 13.4049 13.9529 13.4049L14.9367 13.3485C14.8973 13.3219 14.8547 13.3002 14.8101 13.2837C14.6778 13.2189 14.5627 13.1239 14.4742 13.0065C14.3418 12.8257 14.2739 12.6059 14.2814 12.3821C14.1327 12.388 13.9846 12.4042 13.8381 12.4306C12.9594 12.5517 12.0802 12.6453 11.2044 12.7726L7.51162 13.2972C7.43592 13.3126 7.35919 13.3224 7.28205 13.3265L7.46978 13.1738C7.53536 13.1203 7.59077 13.0741 7.65862 13.0217C8.02332 12.7371 8.61249 12.1533 8.90255 11.8383C8.93704 11.8012 8.94553 11.782 8.98397 11.7426C9.26669 11.4681 9.77556 10.7976 9.9876 10.4832C10.2409 10.1101 10.5129 9.71794 10.713 9.31448C10.7368 9.26658 10.7549 9.24348 10.7769 9.20178C10.8566 9.04964 10.9318 8.89243 11.0093 8.73859C11.0868 8.58476 11.1569 8.42473 11.2281 8.26301C11.2994 8.10129 11.3706 7.93111 11.4306 7.77052C11.7856 6.81878 11.7421 5.70815 11.2869 4.80093L11.128 4.49664C11.0715 4.37662 10.9765 4.38902 10.9675 4.55976C10.9285 5.27088 10.6401 6.58832 10.4371 7.189C10.419 7.24535 10.4083 7.28761 10.3896 7.34565C10.22 7.86124 9.83436 8.80171 9.559 9.25306C9.5313 9.2987 9.51377 9.33645 9.4855 9.38435C9.16943 9.91516 8.94779 10.2803 8.58648 10.8021C8.41686 11.05 8.2297 11.2901 8.03633 11.5194L7.74118 11.8519C7.55629 12.0435 7.5314 12.0773 7.31824 12.2745C6.99256 12.5754 6.49555 12.9033 6.03813 12.9033L6.03417 12.9017ZM12.2481 5.90593C12.3239 6.06427 12.2154 7.047 12.1775 7.31916C12.1628 7.42341 12.1407 7.52089 12.1209 7.62908C12.0594 7.93192 11.9745 8.22957 11.8671 8.5194C11.7842 8.74258 11.6885 8.96082 11.5804 9.17304C11.5578 9.21699 11.5352 9.24855 11.512 9.29532C11.4707 9.37872 11.4204 9.45253 11.3712 9.53593L11.0613 9.97602L10.7062 10.384L15.2862 9.80472C15.3546 9.79514 15.4094 9.79964 15.4558 9.76752C15.4756 9.75344 15.4914 9.73484 15.5123 9.71681L16.2349 9.02259L16.7257 8.45009C16.9163 8.21624 17.0995 7.94802 17.268 7.69727L17.6722 7.0115C17.8757 6.62437 18.0459 6.22078 18.1811 5.80507C18.3066 5.42866 18.4638 4.73444 18.4638 4.35746L12.2498 5.90875L12.2481 5.90593ZM38.374 27.3292C38.504 27.3912 39.4161 27.5546 39.5699 27.58C40.595 27.744 41.9542 27.7648 42.9239 27.4397C43.0981 27.3833 43.2666 27.3309 43.4266 27.2605C43.5024 27.2272 43.5753 27.1979 43.6528 27.1613C44.1051 26.9517 44.3098 26.7736 44.6677 26.4987C44.8202 26.3701 44.9631 26.2305 45.0951 26.0811C45.1229 26.0479 45.1483 26.0304 45.1749 25.9971L45.3275 25.8089C45.525 25.5537 45.7002 25.282 45.8511 24.997C46.1793 24.3634 46.4036 23.6816 46.5155 22.9774C46.5535 22.774 46.5751 22.5678 46.5799 22.361C46.4329 22.361 45.9993 22.2826 45.6781 22.2798L45.3507 22.2657C44.6015 22.2657 44.3895 22.2809 43.6545 22.4021C43.1768 22.4933 42.7101 22.6348 42.2624 22.8241C41.7681 23.035 41.3024 23.3073 40.8765 23.6344L40.5786 23.8824C40.4242 24.0266 40.245 24.1641 40.1081 24.3253L39.9345 24.5197C39.8396 24.6414 39.7287 24.7563 39.6083 24.9141C39.228 25.408 38.9112 25.9473 38.6652 26.5195C38.5699 26.7359 38.4867 26.9573 38.4158 27.1827C38.4011 27.2261 38.3847 27.2954 38.3695 27.327L38.374 27.3292ZM16.7981 12.0198C16.5465 12.0296 16.2968 11.9734 16.0738 11.8569C15.9737 11.8044 15.8896 11.7262 15.8299 11.6304C15.7703 11.5346 15.7374 11.4247 15.7345 11.312C15.7251 11.0639 15.771 10.8168 15.8691 10.5885L16.1032 10.1282C15.3958 10.2921 14.7648 10.7305 14.7648 11.5301C14.7746 12.0295 14.9433 12.513 15.2466 12.9107C15.5202 13.2606 16.0286 13.4471 16.6341 13.4471C17.3692 13.4471 17.9544 13.2217 18.5108 12.9901C18.6934 12.9146 18.8602 12.8211 19.0332 12.7349C19.5421 12.483 20.194 11.9882 20.6316 11.6192L20.8437 11.436C20.868 11.4146 20.8816 11.3971 20.9053 11.3746L21.629 10.6669C21.9892 10.3113 22.519 9.59622 22.7718 9.21925C22.9815 8.90539 23.1777 8.58701 23.3626 8.25681L24.6738 5.68448C24.7377 5.5577 24.887 5.25003 24.8966 5.13113C24.9407 5.16325 24.9605 5.2551 24.9809 5.30582C25.0804 5.55544 25.2636 5.99327 25.3931 6.22881L25.7736 6.9112C26.1649 7.56935 26.6153 8.19079 27.1193 8.76789L28.0963 9.79514C28.1226 9.8143 28.1477 9.835 28.1715 9.85712C28.2202 9.90502 28.258 9.94615 28.3072 9.99348L28.9495 10.5513C28.9795 10.5778 28.9937 10.588 29.0242 10.6128L29.9289 11.3042C30.0374 11.3825 30.1352 11.4439 30.2432 11.5222C30.5628 11.7457 30.8951 11.9506 31.2384 12.1359L31.5833 12.3229C31.9316 12.5309 32.3132 12.6751 32.6898 12.8267C33.0522 12.9727 34.074 13.3164 34.4596 13.0273C34.7949 12.776 34.5761 12.1995 34.4686 11.911C34.3574 11.6215 34.2232 11.3413 34.0672 11.0731L33.7635 10.5451C33.7206 10.4747 33.6629 10.3378 33.5939 10.2893C33.6024 10.3891 33.841 10.9655 33.8399 11.3915C33.8399 11.4597 33.8523 11.498 33.8523 11.5414C33.8523 11.8468 33.7534 12.2491 33.3621 12.2491C32.7362 12.2491 31.9254 11.8344 31.4182 11.5324C31.024 11.294 30.6472 11.0281 30.2907 10.7367C30.1674 10.6431 30.0494 10.5427 29.9373 10.4358C29.7802 10.2752 29.6054 10.1304 29.4454 9.97263L29.2136 9.72808C28.9739 9.49198 28.4367 8.80959 28.258 8.57067C28.2083 8.50474 28.171 8.44614 28.1212 8.38021C27.9363 8.12919 27.7643 7.86889 27.6061 7.60035C27.4048 7.26225 27.2052 6.93317 27.0294 6.58268L26.9203 6.36518L26.7065 5.92453C26.46 5.40638 26.2398 4.87622 26.0467 4.33605L25.6441 3.13187C25.5943 2.97072 25.5491 2.80392 25.501 2.63431C25.2656 1.80816 25.0768 0.969494 24.9356 0.122276C24.9317 0.0963557 24.9294 0.0721257 24.9243 0.0518401C24.9074 -0.0112708 24.9424 0.0343729 24.8944 0C24.8859 0.0997376 24.7174 0.5911 24.6744 0.719575L23.9597 2.82421C23.6663 3.66944 23.3247 4.49101 22.9945 5.31934C22.8815 5.60785 22.6581 6.1364 22.5207 6.41195L22.2199 7.05038L22.1108 7.26845C21.594 8.29851 21.0026 9.2463 20.263 10.1225C20.2104 10.1845 20.1601 10.2352 20.1109 10.2978C20.0888 10.3253 20.0644 10.3509 20.038 10.3744C20.0029 10.4099 19.9955 10.4308 19.9633 10.4634L19.3153 11.0697C19.173 11.1903 19.0218 11.3001 18.863 11.3983C18.2603 11.7657 17.5574 12.0181 16.7953 12.0181L16.7981 12.0198ZM5.7492 15.3275C5.7492 15.4216 5.95162 15.9287 5.98668 16.0296L6.35533 17.0777C6.54984 17.6648 6.77374 18.2447 6.97333 18.8301C7.21647 19.5407 7.48222 20.2388 7.71743 20.9472C7.79433 21.1726 7.88706 21.4075 7.96339 21.6408C8.19804 22.3446 8.46435 23.0445 8.70409 23.7471C8.86354 24.2143 9.04334 24.6769 9.1994 25.1457L9.63308 26.3736C9.65513 26.4355 9.67153 26.5048 9.6964 26.5561C9.8044 26.5308 10.5253 26.4846 10.8024 26.4198C10.7548 26.2552 10.6982 26.0935 10.6327 25.9352L9.65456 23.1808C9.63364 23.1284 9.61781 23.0755 9.59802 23.0191C9.57823 22.9628 9.56014 22.9216 9.54148 22.8591L9.19544 21.8837C9.1536 21.7777 9.11628 21.6701 9.08236 21.5625L8.96531 21.2306C8.79568 20.8052 8.6679 20.3617 8.50224 19.9346C8.47962 19.8782 8.46831 19.832 8.44569 19.7717L8.21952 19.1288C8.19917 19.0679 8.18277 19.0324 8.16298 18.9687C8.14319 18.9051 8.12284 18.8639 8.10644 18.8087L7.58399 17.3436C7.53819 17.218 7.18028 16.1603 7.12147 16.0476L7.89384 16.0008C8.12906 15.9659 8.42646 15.9822 8.67468 15.9484L9.83889 15.8707C9.96668 15.8645 10.0945 15.8436 10.2347 15.8436C10.2733 15.9411 10.3053 16.0411 10.3302 16.1428L11.8569 21.1579C12.0627 21.7822 12.2216 22.4173 12.4268 23.04L12.809 24.292C12.9351 24.7152 13.0708 25.1204 13.1896 25.5464C13.2156 25.6388 13.2738 25.7633 13.2823 25.8625C13.4762 25.8174 14.2294 25.5137 14.2927 25.5086C14.2927 25.4021 14.2407 25.295 14.2096 25.197L13.4548 22.7717C13.4254 22.6647 13.392 22.5751 13.362 22.4691C13.2167 21.9575 13.0471 21.4549 12.8967 20.9477C12.8656 20.8412 12.8266 20.7347 12.7994 20.6367C12.6298 20.0258 12.4161 19.4331 12.2425 18.8234L12.0536 18.208C11.9174 17.8034 11.8032 17.3977 11.6816 16.987L11.3989 16.0814C11.3684 15.9918 11.3271 15.8622 11.305 15.767C11.5125 15.767 11.7133 15.7422 11.9066 15.7264L12.8074 15.6701C12.8922 15.6656 13.0228 15.647 13.1076 15.6425L13.7222 15.6019C13.7222 15.6943 14.4143 17.786 14.4991 18.0531C14.5308 18.1528 14.5556 18.2334 14.5879 18.3348L16.4176 24.0649C16.4425 24.159 16.4729 24.2516 16.5086 24.3422C16.6256 24.3146 17.437 23.7438 17.437 23.7432C17.437 23.6666 17.3132 23.3245 17.2815 23.231C16.8501 21.9524 16.4735 20.6671 16.0421 19.3897C16.015 19.3074 15.9856 19.2234 15.9573 19.1338L15.4614 17.5876C15.3517 17.2445 15.246 16.903 15.1335 16.5672C15.1047 16.4809 15.0769 16.3908 15.0515 16.3079C14.9661 16.0544 14.8649 15.7952 14.8038 15.5343C15.1227 15.5078 15.4445 15.4745 15.7741 15.4667L16.5657 15.4103C16.8693 15.403 17.2408 15.3449 17.549 15.3421C17.6717 15.3421 17.817 15.3145 17.9448 15.3145C17.9482 15.4627 18.0844 16.047 18.1144 16.2054L19.2616 21.9626C19.2769 22.0398 19.291 22.1113 19.3046 22.1778C19.3233 22.2522 19.3382 22.3274 19.3493 22.4032C19.3764 22.3959 20.1884 21.8668 20.3325 21.7907C20.3258 21.7135 20.2941 21.5946 20.276 21.5174L19.6478 18.4278C19.6105 18.2413 19.572 18.0649 19.5347 17.8739L19.0824 15.6329C18.9801 15.1257 18.9597 15.2604 19.209 15.2266C19.4222 15.1979 19.9096 15.1742 20.1556 15.1624C20.2438 15.1579 20.3817 15.1393 20.4694 15.1353C20.5706 15.1303 20.6955 15.1314 20.7934 15.1179C20.8988 15.1046 21.0049 15.0967 21.1111 15.0942C21.3328 15.0942 21.5369 15.0536 21.7534 15.0536C21.7595 15.1685 21.7724 15.2829 21.7919 15.3962C21.8066 15.5185 21.8219 15.6289 21.8349 15.7473C21.8603 15.9727 21.8914 16.2014 21.9231 16.4359C21.9881 16.9047 22.0395 17.3589 22.0972 17.8277L22.4495 20.6062C22.5512 20.6062 22.8164 20.5161 22.9493 20.4935C23.1305 20.4512 23.3152 20.4257 23.5012 20.4175C23.5012 20.2732 22.9357 16.0848 22.8865 15.6678C22.8617 15.439 22.8046 15.212 22.8046 14.9736L24.5008 14.8648C24.5467 14.8633 24.5923 14.859 24.6376 14.8519L24.9243 14.8378C24.9933 14.8378 24.9922 14.8237 25.0606 14.8237V20.4721C25.0606 20.5285 25.2681 20.5544 25.3529 20.5753C25.5554 20.6279 25.7542 20.6934 25.9483 20.7713C26.0413 20.8142 26.137 20.8507 26.235 20.8807V14.8643C26.4136 14.8643 27.2725 15.0187 27.5354 15.0542C27.5984 15.0669 27.662 15.0763 27.726 15.0824C27.7249 15.1462 27.7206 15.21 27.713 15.2734L27.6988 15.6813C27.6988 15.7721 27.6847 15.7986 27.6847 15.8848C27.6847 16.0318 27.6762 16.1434 27.6717 16.2939L27.6446 16.6883C27.6395 16.7531 27.6491 16.8252 27.6417 16.89L27.5892 17.8992C27.5889 17.9631 27.5846 18.0269 27.5762 18.0903L27.562 18.4982C27.562 18.5901 27.549 18.6216 27.5479 18.7017L27.4257 21.3157C27.4257 21.407 27.4116 21.4396 27.4116 21.5197C27.4585 21.5507 27.5043 21.5867 27.5541 21.6228C27.6038 21.6588 27.6491 21.6921 27.7045 21.7315C27.9307 21.8921 28.1647 22.0279 28.3711 22.2105C28.4328 22.2668 28.5119 22.3638 28.5724 22.4043L28.586 22.1857C28.586 22.051 28.6154 21.8916 28.6137 21.7513L28.7222 19.7362C28.7222 19.5311 28.7624 19.2888 28.7647 19.0837L28.8727 17.0687C28.8727 16.9148 28.9055 16.5795 28.9139 16.4156C28.9139 16.3761 28.9139 16.3327 28.9139 16.2927C28.9173 16.2364 28.9247 16.2431 28.9281 16.184L28.9609 15.5078C28.9693 15.429 28.9719 15.3497 28.9688 15.2706C29.1254 15.2739 29.3555 15.3297 29.5155 15.3517C29.757 15.3838 31.0133 15.5974 31.1813 15.5974C31.1485 15.665 30.8137 17.7674 30.8024 17.8333C30.6758 18.5901 30.5525 19.3282 30.4264 20.0873L30.0029 22.6185C29.9735 22.792 29.9503 22.7391 30.051 22.8506C30.3088 23.1363 30.5661 23.4485 30.7442 23.7928C30.7645 23.8317 30.7776 23.8604 30.8007 23.8993L30.8663 24.012L31.516 19.8822C31.6234 19.1879 31.7263 18.5134 31.84 17.8232C31.8541 17.7375 32.1611 15.865 32.164 15.7501C32.2047 15.7698 32.601 15.8217 32.6819 15.8329L34.1401 16.0538C34.3312 16.0837 34.2837 16.033 34.1277 16.6049L33.1139 20.2225C33.0138 20.5724 32.9262 20.9043 32.8255 21.2548C32.7249 21.6053 32.6282 21.9473 32.5355 22.286L32.1001 23.8424C32.0628 23.9714 31.9666 24.2571 31.9576 24.3675C32.1279 24.3786 32.296 24.4124 32.4574 24.4678L32.886 24.6397C32.886 24.5377 33.0149 24.1399 33.0449 24.0362L33.5413 22.2443C33.6544 21.8459 33.759 21.4509 33.8721 21.0497C33.9852 20.6485 34.0875 20.2569 34.2029 19.8545C34.3182 19.4522 34.4166 19.0623 34.5336 18.66C34.6801 18.159 34.8011 17.6598 34.9464 17.1656C35.1375 16.5198 35.2953 15.8763 35.4858 15.226C35.5045 15.1763 35.5166 15.1244 35.522 15.0716C35.3846 15.0395 35.228 15.0204 35.0793 14.9956L25.95 13.4742C25.8872 13.464 25.7888 13.4426 25.7272 13.4364C25.609 13.4257 25.1765 13.4928 25.0193 13.5029C24.7666 13.517 24.5461 13.5542 24.295 13.5711C24.0598 13.5869 23.8246 13.6274 23.5854 13.6393C23.3462 13.6511 23.1121 13.6866 22.8741 13.7063C22.2329 13.7627 21.6064 13.832 20.9647 13.8855L20.4914 13.9311C20.41 13.9424 20.3354 13.9486 20.2534 13.9531C20.1838 13.9571 20.0877 13.9734 20.0199 13.979C19.8542 13.9914 19.7061 14.01 19.5438 14.0213L18.5984 14.1137C18.4378 14.1306 18.2772 14.1475 18.1229 14.1565C17.8102 14.1757 17.48 14.2174 17.1617 14.2501C16.8371 14.2833 16.5346 14.3025 16.2101 14.3357C16.0653 14.3509 15.8815 14.3662 15.7396 14.3842C15.6537 14.3955 15.5858 14.3949 15.4999 14.4039C15.4354 14.4107 15.3337 14.4236 15.2652 14.4287C15.103 14.4394 14.9543 14.458 14.7886 14.471C14.7207 14.476 14.6252 14.4929 14.5551 14.4969C14.1683 14.5177 13.7454 14.5769 13.3547 14.6096C13.2868 14.6152 13.1907 14.6316 13.1212 14.6355L12.6445 14.6778C12.5767 14.6828 12.4805 14.6997 12.411 14.7037C11.9372 14.7296 11.4633 14.8029 10.9901 14.8389C10.8239 14.8519 10.6757 14.8705 10.5134 14.8812C10.1996 14.9026 9.8666 14.9511 9.55561 14.9753C9.38995 14.9883 9.2418 15.0069 9.07953 15.0176L7.65862 15.1534C7.26848 15.177 6.86703 15.2328 6.47124 15.2661C6.22924 15.2846 5.9895 15.3331 5.74637 15.3331L5.7492 15.3275Z" fill="white"/>
</svg>