<svg id="_24_beans" height="512" viewBox="0 0 64 64" width="512" xmlns="http://www.w3.org/2000/svg" data-name="24 beans"><path d="m33.61 39.014a12.62 12.62 0 0 1 -.737 2.144 2.641 2.641 0 0 1 -.109.246c-.128.256-.246.512-.373.767 0 .01-.01.02-.01.03-.109.207-.217.413-.335.62a17.808 17.808 0 0 1 -2.823 3.728 19.512 19.512 0 0 1 -3.738 2.931 18.766 18.766 0 0 1 -9.64 2.765 14.81 14.81 0 0 1 -6.04-1.23c-2.371-1.062-3.906-2.331-4.673-3.9-1.249-2.518-.59-6.551 1.476-8.991a4.95 4.95 0 0 1 5.449-1.75l1 .3.58.168.354.108.738.226a2.9 2.9 0 0 0 3.118-1.043 10.11 10.11 0 0 0 1.092-1.78l.04-.069c.226.128.4.226.56.3l.3.148a10.648 10.648 0 0 0 1.79.629 9.22 9.22 0 0 0 2.075.285c.128.01.246.01.374.01.207 0 .4-.01.61-.019h.01a18.75 18.75 0 0 0 7.122-2.086c.3-.157.59-.3.875-.462h.01c.1.138.187.275.276.423a4.317 4.317 0 0 1 .374.728 2.578 2.578 0 0 1 .137.354 3.8 3.8 0 0 1 .217.728c.029.128.059.255.078.383a2.463 2.463 0 0 1 .04.286c.019.108.029.236.039.354a8.4 8.4 0 0 1 -.256 2.669z" fill="#f3c187"/><path d="m59.442 43.775a6.793 6.793 0 0 1 -2.361 4.417v.01a9.115 9.115 0 0 1 -1.623 1.121 8.9 8.9 0 0 1 -.816.384 10.633 10.633 0 0 1 -4.092.7 26.766 26.766 0 0 1 -11.195-2.833 20.5 20.5 0 0 1 -5.745-3.9 12.281 12.281 0 0 1 -1.229-1.474c0-.01.01-.02.01-.03.127-.255.245-.511.373-.767a2.641 2.641 0 0 0 .109-.246 12.62 12.62 0 0 0 .737-2.144 8.4 8.4 0 0 0 .256-2.656c-.01-.118-.02-.246-.039-.354a2.463 2.463 0 0 0 -.04-.286c-.019-.128-.049-.255-.078-.383a3.8 3.8 0 0 0 -.217-.728 2.578 2.578 0 0 0 -.137-.354 4.317 4.317 0 0 0 -.374-.728c-.089-.148-.177-.285-.276-.423.522-.286 1.023-.571 1.5-.856.816-.5 1.554-.994 2.174-1.436l.324-.227q.68-.486 1.387-1.062c.364-.285.728-.6 1.092-.934h.01a4.873 4.873 0 0 1 .748.127c.157.04.314.079.472.128.059.02.108.04.167.059a6.537 6.537 0 0 1 1.308.591 4.959 4.959 0 0 1 .773.509c.01.01.03.02.04.03a5.3 5.3 0 0 1 .511.432 3.134 3.134 0 0 1 .256.246 5.687 5.687 0 0 1 .561.63 11.264 11.264 0 0 1 1.072 1.83 9.993 9.993 0 0 0 1.072 1.79 2.937 2.937 0 0 0 3.119 1.052l2.685-.816a4.594 4.594 0 0 1 1.249-.2 4.988 4.988 0 0 1 .777.04 2.088 2.088 0 0 1 .355.059 3.151 3.151 0 0 1 .619.177 5.694 5.694 0 0 1 2.656 2.016 9.107 9.107 0 0 1 1.81 6.489z" fill="#f2dbb2"/><path d="m35.155 39.663a16.953 16.953 0 0 1 -.964 2.813 2.294 2.294 0 0 1 -.148.315c-.147.3-.275.59-.433.886a12.281 12.281 0 0 1 -1.229-1.477c0-.01.01-.02.01-.03.127-.255.245-.511.373-.767a2.641 2.641 0 0 0 .109-.246 12.62 12.62 0 0 0 .737-2.144 8.4 8.4 0 0 0 .256-2.656c-.01-.118-.02-.246-.039-.354a2.463 2.463 0 0 0 -.04-.286c-.019-.128-.049-.255-.078-.383a3.8 3.8 0 0 0 -.217-.728 2.578 2.578 0 0 0 -.137-.354 4.317 4.317 0 0 0 -.374-.728c-.089-.148-.177-.285-.276-.423.522-.286 1.023-.571 1.5-.856.039.069.088.138.127.206a5.47 5.47 0 0 1 .492.955 3.02 3.02 0 0 1 .177.472 4.076 4.076 0 0 1 .286.954c.039.167.078.335.108.5.019.118.039.246.049.374a3.256 3.256 0 0 1 .049.462 10.852 10.852 0 0 1 -.338 3.495z" fill="#bf9d69"/><path d="m43.369 21.524c-.05.236-.109.472-.177.7-.04.138-.079.266-.128.4a2.832 2.832 0 0 1 -.118.374 13.936 13.936 0 0 1 -.541 1.318 12.213 12.213 0 0 1 -.837 1.5 13.55 13.55 0 0 1 -1.75 2.154c-.207.216-.414.413-.63.62h-.01c-.364.334-.728.649-1.092.934q-.708.576-1.387 1.062l-.324.227c-.62.442-1.358.934-2.174 1.436-.473.285-.974.57-1.5.856h-.001c-.285.157-.58.3-.875.462a18.75 18.75 0 0 1 -7.125 2.083h-.01c-.206.009-.4.019-.61.019h-.029c-.118 0-.226 0-.345-.01a9.22 9.22 0 0 1 -2.075-.285 10.648 10.648 0 0 1 -1.79-.629l-.3-.148c-.157-.079-.334-.177-.56-.3h-.01a6.563 6.563 0 0 1 -3.089-3.807 9.98 9.98 0 0 1 .364-5.892c.089-.226.187-.463.295-.679a.01.01 0 0 0 .01-.01c.01-.019.02-.049.03-.069.068-.128.147-.255.226-.383a1.68 1.68 0 0 1 .108-.177l.059-.089a.181.181 0 0 0 .029-.049c.01-.01.03-.03.03-.039a5.624 5.624 0 0 1 .561-.719 5.259 5.259 0 0 1 .58-.56 4.267 4.267 0 0 1 .639-.472 4.849 4.849 0 0 1 .709-.374 3.022 3.022 0 0 1 .57-.207c.118-.039.246-.069.364-.1a.215.215 0 0 1 .079-.01 4.449 4.449 0 0 1 1.407-.039l2.784.373a2.935 2.935 0 0 0 2.911-1.534 10.494 10.494 0 0 0 .748-1.928 12.018 12.018 0 0 1 .777-1.987 4.859 4.859 0 0 1 .374-.62c.088-.128.187-.256.285-.384.03-.029.049-.069.079-.1a4.406 4.406 0 0 1 .58-.62 6.9 6.9 0 0 1 4.712-2.056c.138-.01.285-.01.423-.01 3.217 0 6.9 1.6 7.8 5.263a9.848 9.848 0 0 1 -.046 4.505z" fill="#f1c26a"/><path d="m43.369 21.524c-.05.236-.109.472-.177.7-.04.138-.079.266-.128.4a2.832 2.832 0 0 1 -.118.374 13.936 13.936 0 0 1 -.541 1.318 12.213 12.213 0 0 1 -.837 1.5 13.55 13.55 0 0 1 -1.75 2.154c-.207.216-.414.413-.63.62h-.01c-.364.334-.728.649-1.092.934q-.708.576-1.387 1.062l-.324.227c-.62.442-1.358.934-2.174 1.436-.473.285-.974.57-1.5.856h-.001c-.285.157-.58.3-.875.462a18.75 18.75 0 0 1 -7.125 2.083h-.01c-.206.009-.4.019-.61.019h-.029c-.118 0-.226 0-.345-.01a9.22 9.22 0 0 1 -2.075-.285 10.648 10.648 0 0 1 -1.79-.629l-.3-.148c-.157-.079-.334-.177-.56-.3h-.01a6.563 6.563 0 0 1 -3.089-3.807 9.98 9.98 0 0 1 .364-5.892c.089-.226.187-.463.295-.679a.01.01 0 0 0 .01-.01 9.693 9.693 0 0 0 .1 4.23 6.563 6.563 0 0 0 3.089 3.807h.01c.226.128.4.226.561.305l.3.147a10.623 10.623 0 0 0 1.79.63 9.221 9.221 0 0 0 2.076.285c.118.01.226.01.344.01h.03c.206 0 .4-.01.609-.019h.01a18.75 18.75 0 0 0 7.122-2.086c.295-.157.591-.3.876-.462h.01c.521-.286 1.023-.571 1.5-.856.816-.5 1.554-.994 2.174-1.436l.324-.227q.679-.486 1.387-1.062c.364-.285.728-.6 1.092-.934h.01c.217-.207.423-.4.63-.62a13.61 13.61 0 0 0 1.751-2.154 12.208 12.208 0 0 0 .836-1.5c.059-.148.128-.296.187-.443z" fill="#d8a555"/><path d="m54.357 35.1a4.62 4.62 0 0 1 -1.092 1.908c-1.879 2.095-4.279 2.479-7.142 1.141a6.162 6.162 0 0 1 -3.915-6.433 4.649 4.649 0 0 1 .452-1.716c.01.01.03.02.04.03a5.3 5.3 0 0 1 .511.432 3.134 3.134 0 0 1 .256.246 5.687 5.687 0 0 1 .561.63 11.264 11.264 0 0 1 1.072 1.83 9.993 9.993 0 0 0 1.072 1.79 2.937 2.937 0 0 0 3.119 1.052l2.685-.816a4.594 4.594 0 0 1 1.249-.2 4.988 4.988 0 0 1 .777.04 2.088 2.088 0 0 1 .355.066z" fill="#af6f39"/><path d="m54.357 35.1a4.62 4.62 0 0 1 -1.092 1.908c-1.879 2.095-4.279 2.479-7.142 1.141a6.162 6.162 0 0 1 -3.915-6.433 4.649 4.649 0 0 1 .452-1.716c.01.01.03.02.04.03a5.3 5.3 0 0 1 .511.432 3.134 3.134 0 0 1 .256.246 4.005 4.005 0 0 0 -.3 1.25 5.157 5.157 0 0 0 3.266 5.371c2.39 1.111 4.387.787 5.951-.954a3.737 3.737 0 0 0 .841-1.375 4.988 4.988 0 0 1 .777.04 2.088 2.088 0 0 1 .355.06z" fill="#935626"/><path d="m24.7 35.65v.167c-.049 2.223-2.813 3.866-4.466 4.653a9.7 9.7 0 0 1 -4 1.1 4.366 4.366 0 0 1 -2.056-.472 2.661 2.661 0 0 1 -1.478-2.891c0-.01.01-.02.01-.029.01-.03.059-.236.128-.541.059-.266.137-.6.226-.955l.58.168.354.108.738.226a2.9 2.9 0 0 0 3.118-1.043 10.11 10.11 0 0 0 1.092-1.78l.04-.069c.226.128.4.226.56.3l.3.148a10.648 10.648 0 0 0 1.79.629 9.22 9.22 0 0 0 2.075.285c.119.01.227.01.345.01h.029c.207 0 .4-.01.61-.019z" fill="#af6f39"/><path d="m24.7 35.65v.167c-.049 2.223-2.813 3.866-4.466 4.653a9.7 9.7 0 0 1 -4 1.1 4.366 4.366 0 0 1 -2.056-.472 2.661 2.661 0 0 1 -1.478-2.891c0-.01.01-.02.01-.029.01-.03.059-.236.128-.541.059-.266.137-.6.226-.955l.58.168c0 .029-.039.177-.039.2-.02.089-.049.177-.069.266a3.006 3.006 0 0 0 -.069.4 2.1 2.1 0 0 0 .01.354 2.181 2.181 0 0 0 .157.66 2.492 2.492 0 0 0 .355.58 2.442 2.442 0 0 0 .531.482 2.236 2.236 0 0 0 .295.177 3.819 3.819 0 0 0 1.81.423 8.54 8.54 0 0 0 3.531-.974c1.368-.659 3.6-1.967 3.9-3.748h.029c.207 0 .4-.01.61-.019z" fill="#935626"/><path d="m27.925 22.271c-2.4 1.633-4.6 1.663-6.562.1a3.89 3.89 0 0 1 -1.269-1.6c.118-.039.246-.069.364-.1a.215.215 0 0 1 .079-.01 4.449 4.449 0 0 1 1.407-.039l2.784.373a2.935 2.935 0 0 0 2.911-1.534 10.494 10.494 0 0 0 .748-1.928 12.018 12.018 0 0 1 .777-1.987 4.859 4.859 0 0 1 .374-.62c.088-.128.187-.256.285-.384.03-.029.049-.069.079-.1a4.581 4.581 0 0 1 .679 1.5 5.692 5.692 0 0 1 -2.656 6.329z" fill="#af6f39"/><path d="m27.925 22.271c-2.4 1.633-4.6 1.663-6.562.1a3.89 3.89 0 0 1 -1.269-1.6c.118-.039.246-.069.364-.1a.215.215 0 0 1 .079-.01 3.791 3.791 0 0 0 .866.925c1.79 1.426 3.8 1.4 5.99-.089a5.2 5.2 0 0 0 2.42-5.774 4.754 4.754 0 0 0 -.275-.8c.088-.128.187-.256.285-.384.03-.029.049-.069.079-.1a4.581 4.581 0 0 1 .679 1.5 5.692 5.692 0 0 1 -2.656 6.332z" fill="#935626"/><g fill="#f3f3f3"><path d="m38.253 26.383c-.275.3-.56.59-.836.846a.5.5 0 0 1 -.334.138.53.53 0 0 1 -.364-.158.506.506 0 0 1 .029-.7c.266-.246.522-.5.777-.787a.5.5 0 0 1 .7-.03.484.484 0 0 1 .028.691z"/><path d="m41.529 20.363a14.7 14.7 0 0 1 -1.429 3.492c-.118.2-.226.384-.345.571a.5.5 0 0 1 -.413.226.486.486 0 0 1 -.265-.069.5.5 0 0 1 -.158-.679 5.96 5.96 0 0 0 .325-.541 13.589 13.589 0 0 0 1.328-3.246.493.493 0 0 1 .954.246z"/></g></svg>